<mxfile host="app.diagrams.net" agent="Mozilla/5.0 (Windows NT 10.0; Win64; x64) AppleWebKit/537.36 (KHTML, like Gecko) Chrome/129.0.0.0 Safari/537.36 Edg/129.0.0.0" version="24.8.0">
  <diagram name="Page-1" id="ZnEII1DR_nIjoIJPPloN">
    <mxGraphModel dx="1426" dy="1883" grid="1" gridSize="10" guides="1" tooltips="1" connect="1" arrows="1" fold="1" page="1" pageScale="1" pageWidth="850" pageHeight="1100" math="0" shadow="0">
      <root>
        <mxCell id="0" />
        <mxCell id="1" parent="0" />
        <mxCell id="jUnamfFkszUpqMm_n2EK-4" value="Lesson Offering System" style="swimlane;whiteSpace=wrap;html=1;" vertex="1" parent="1">
          <mxGeometry x="318" y="-1040" width="215" height="980" as="geometry" />
        </mxCell>
        <mxCell id="jUnamfFkszUpqMm_n2EK-5" value="User Registration" style="ellipse;whiteSpace=wrap;html=1;" vertex="1" parent="jUnamfFkszUpqMm_n2EK-4">
          <mxGeometry x="52.5" y="40" width="110" height="70" as="geometry" />
        </mxCell>
        <mxCell id="jUnamfFkszUpqMm_n2EK-11" value="Availability Registration" style="ellipse;whiteSpace=wrap;html=1;" vertex="1" parent="jUnamfFkszUpqMm_n2EK-4">
          <mxGeometry x="52.5" y="130" width="110" height="70" as="geometry" />
        </mxCell>
        <mxCell id="jUnamfFkszUpqMm_n2EK-6" value="Browse Offerings" style="ellipse;whiteSpace=wrap;html=1;" vertex="1" parent="jUnamfFkszUpqMm_n2EK-4">
          <mxGeometry x="50" y="220" width="110" height="70" as="geometry" />
        </mxCell>
        <mxCell id="jUnamfFkszUpqMm_n2EK-8" value="Search Offerings" style="ellipse;whiteSpace=wrap;html=1;" vertex="1" parent="jUnamfFkszUpqMm_n2EK-4">
          <mxGeometry x="52.5" y="310" width="110" height="70" as="geometry" />
        </mxCell>
        <mxCell id="jUnamfFkszUpqMm_n2EK-10" value="Select Offerings" style="ellipse;whiteSpace=wrap;html=1;" vertex="1" parent="jUnamfFkszUpqMm_n2EK-4">
          <mxGeometry x="52.5" y="400" width="110" height="70" as="geometry" />
        </mxCell>
        <mxCell id="jUnamfFkszUpqMm_n2EK-9" value="Make Booking" style="ellipse;whiteSpace=wrap;html=1;" vertex="1" parent="jUnamfFkszUpqMm_n2EK-4">
          <mxGeometry x="52.5" y="490" width="110" height="70" as="geometry" />
        </mxCell>
        <mxCell id="jUnamfFkszUpqMm_n2EK-7" value="View Booking Details" style="ellipse;whiteSpace=wrap;html=1;" vertex="1" parent="jUnamfFkszUpqMm_n2EK-4">
          <mxGeometry x="52.5" y="580" width="110" height="70" as="geometry" />
        </mxCell>
        <mxCell id="jUnamfFkszUpqMm_n2EK-15" value="Cancel Booking" style="ellipse;whiteSpace=wrap;html=1;" vertex="1" parent="jUnamfFkszUpqMm_n2EK-4">
          <mxGeometry x="52.5" y="670" width="110" height="70" as="geometry" />
        </mxCell>
        <mxCell id="jUnamfFkszUpqMm_n2EK-12" value="Offering Management" style="ellipse;whiteSpace=wrap;html=1;" vertex="1" parent="jUnamfFkszUpqMm_n2EK-4">
          <mxGeometry x="52.5" y="760" width="110" height="70" as="geometry" />
        </mxCell>
        <mxCell id="jUnamfFkszUpqMm_n2EK-14" value="Delete Account" style="ellipse;whiteSpace=wrap;html=1;" vertex="1" parent="jUnamfFkszUpqMm_n2EK-4">
          <mxGeometry x="52" y="850" width="110" height="70" as="geometry" />
        </mxCell>
        <mxCell id="jUnamfFkszUpqMm_n2EK-16" value="Client" style="shape=umlActor;verticalLabelPosition=bottom;verticalAlign=top;html=1;outlineConnect=0;" vertex="1" parent="1">
          <mxGeometry x="70" y="-800" width="30" height="60" as="geometry" />
        </mxCell>
        <mxCell id="jUnamfFkszUpqMm_n2EK-23" value="Guardian" style="shape=umlActor;verticalLabelPosition=bottom;verticalAlign=top;html=1;outlineConnect=0;" vertex="1" parent="1">
          <mxGeometry x="70" y="-580" width="30" height="60" as="geometry" />
        </mxCell>
        <mxCell id="jUnamfFkszUpqMm_n2EK-26" value="Instructor" style="shape=umlActor;verticalLabelPosition=bottom;verticalAlign=top;html=1;outlineConnect=0;" vertex="1" parent="1">
          <mxGeometry x="710" y="-800" width="30" height="60" as="geometry" />
        </mxCell>
        <mxCell id="jUnamfFkszUpqMm_n2EK-27" value="Administrator" style="shape=umlActor;verticalLabelPosition=bottom;verticalAlign=top;html=1;outlineConnect=0;" vertex="1" parent="1">
          <mxGeometry x="710" y="-570" width="30" height="60" as="geometry" />
        </mxCell>
        <mxCell id="jUnamfFkszUpqMm_n2EK-32" value="" style="endArrow=none;html=1;rounded=0;exitX=0.5;exitY=0.5;exitDx=0;exitDy=0;exitPerimeter=0;entryX=1;entryY=0.5;entryDx=0;entryDy=0;" edge="1" parent="1" source="jUnamfFkszUpqMm_n2EK-26" target="jUnamfFkszUpqMm_n2EK-5">
          <mxGeometry width="50" height="50" relative="1" as="geometry">
            <mxPoint x="640" y="-820" as="sourcePoint" />
            <mxPoint x="580" y="-880" as="targetPoint" />
          </mxGeometry>
        </mxCell>
        <mxCell id="jUnamfFkszUpqMm_n2EK-33" value="" style="endArrow=none;html=1;rounded=0;exitX=0.5;exitY=0.5;exitDx=0;exitDy=0;exitPerimeter=0;entryX=1;entryY=0.5;entryDx=0;entryDy=0;" edge="1" parent="1" source="jUnamfFkszUpqMm_n2EK-26" target="jUnamfFkszUpqMm_n2EK-11">
          <mxGeometry width="50" height="50" relative="1" as="geometry">
            <mxPoint x="620" y="-750" as="sourcePoint" />
            <mxPoint x="570" y="-800" as="targetPoint" />
          </mxGeometry>
        </mxCell>
        <mxCell id="jUnamfFkszUpqMm_n2EK-34" value="" style="endArrow=none;html=1;rounded=0;exitX=0.5;exitY=0.5;exitDx=0;exitDy=0;exitPerimeter=0;entryX=1;entryY=0.5;entryDx=0;entryDy=0;" edge="1" parent="1" source="jUnamfFkszUpqMm_n2EK-26" target="jUnamfFkszUpqMm_n2EK-6">
          <mxGeometry width="50" height="50" relative="1" as="geometry">
            <mxPoint x="620" y="-720" as="sourcePoint" />
            <mxPoint x="570" y="-770" as="targetPoint" />
          </mxGeometry>
        </mxCell>
        <mxCell id="jUnamfFkszUpqMm_n2EK-35" value="" style="endArrow=none;html=1;rounded=0;exitX=0.5;exitY=0.5;exitDx=0;exitDy=0;exitPerimeter=0;entryX=1;entryY=0.5;entryDx=0;entryDy=0;" edge="1" parent="1" source="jUnamfFkszUpqMm_n2EK-26" target="jUnamfFkszUpqMm_n2EK-8">
          <mxGeometry width="50" height="50" relative="1" as="geometry">
            <mxPoint x="640" y="-690" as="sourcePoint" />
            <mxPoint x="580" y="-660" as="targetPoint" />
          </mxGeometry>
        </mxCell>
        <mxCell id="jUnamfFkszUpqMm_n2EK-36" value="" style="endArrow=none;html=1;rounded=0;entryX=0.5;entryY=0.5;entryDx=0;entryDy=0;entryPerimeter=0;exitX=1;exitY=0.5;exitDx=0;exitDy=0;" edge="1" parent="1" source="jUnamfFkszUpqMm_n2EK-10" target="jUnamfFkszUpqMm_n2EK-26">
          <mxGeometry width="50" height="50" relative="1" as="geometry">
            <mxPoint x="630" y="-680" as="sourcePoint" />
            <mxPoint x="680" y="-730" as="targetPoint" />
          </mxGeometry>
        </mxCell>
        <mxCell id="jUnamfFkszUpqMm_n2EK-39" value="" style="endArrow=none;html=1;rounded=0;exitX=0.5;exitY=0.5;exitDx=0;exitDy=0;exitPerimeter=0;entryX=0;entryY=0.5;entryDx=0;entryDy=0;" edge="1" parent="1" source="jUnamfFkszUpqMm_n2EK-16" target="jUnamfFkszUpqMm_n2EK-6">
          <mxGeometry width="50" height="50" relative="1" as="geometry">
            <mxPoint x="110" y="-760" as="sourcePoint" />
            <mxPoint x="160" y="-810" as="targetPoint" />
          </mxGeometry>
        </mxCell>
        <mxCell id="jUnamfFkszUpqMm_n2EK-42" value="" style="endArrow=none;html=1;rounded=0;exitX=0.5;exitY=0.5;exitDx=0;exitDy=0;exitPerimeter=0;entryX=0;entryY=0.5;entryDx=0;entryDy=0;" edge="1" parent="1" source="jUnamfFkszUpqMm_n2EK-16" target="jUnamfFkszUpqMm_n2EK-9">
          <mxGeometry width="50" height="50" relative="1" as="geometry">
            <mxPoint x="140" y="-700" as="sourcePoint" />
            <mxPoint x="230" y="-660" as="targetPoint" />
          </mxGeometry>
        </mxCell>
        <mxCell id="jUnamfFkszUpqMm_n2EK-43" value="" style="endArrow=none;html=1;rounded=0;exitX=0.5;exitY=0.5;exitDx=0;exitDy=0;exitPerimeter=0;entryX=0;entryY=0.5;entryDx=0;entryDy=0;" edge="1" parent="1" source="jUnamfFkszUpqMm_n2EK-16" target="jUnamfFkszUpqMm_n2EK-5">
          <mxGeometry width="50" height="50" relative="1" as="geometry">
            <mxPoint x="120" y="-800" as="sourcePoint" />
            <mxPoint x="200" y="-830" as="targetPoint" />
          </mxGeometry>
        </mxCell>
        <mxCell id="jUnamfFkszUpqMm_n2EK-44" value="" style="endArrow=none;html=1;rounded=0;exitX=0.5;exitY=0.5;exitDx=0;exitDy=0;exitPerimeter=0;entryX=0;entryY=0.5;entryDx=0;entryDy=0;" edge="1" parent="1" source="jUnamfFkszUpqMm_n2EK-16" target="jUnamfFkszUpqMm_n2EK-10">
          <mxGeometry width="50" height="50" relative="1" as="geometry">
            <mxPoint x="180" y="-710" as="sourcePoint" />
            <mxPoint x="250" y="-680" as="targetPoint" />
          </mxGeometry>
        </mxCell>
        <mxCell id="jUnamfFkszUpqMm_n2EK-45" value="" style="endArrow=none;html=1;rounded=0;entryX=0;entryY=0.5;entryDx=0;entryDy=0;exitX=0.5;exitY=0.5;exitDx=0;exitDy=0;exitPerimeter=0;" edge="1" parent="1" source="jUnamfFkszUpqMm_n2EK-16" target="jUnamfFkszUpqMm_n2EK-8">
          <mxGeometry width="50" height="50" relative="1" as="geometry">
            <mxPoint x="200" y="-720" as="sourcePoint" />
            <mxPoint x="290" y="-700" as="targetPoint" />
          </mxGeometry>
        </mxCell>
        <mxCell id="jUnamfFkszUpqMm_n2EK-46" value="" style="endArrow=none;html=1;rounded=0;exitX=0.5;exitY=0.5;exitDx=0;exitDy=0;exitPerimeter=0;entryX=0;entryY=0.5;entryDx=0;entryDy=0;" edge="1" parent="1" source="jUnamfFkszUpqMm_n2EK-16" target="jUnamfFkszUpqMm_n2EK-7">
          <mxGeometry width="50" height="50" relative="1" as="geometry">
            <mxPoint x="130" y="-670" as="sourcePoint" />
            <mxPoint x="170" y="-580" as="targetPoint" />
          </mxGeometry>
        </mxCell>
        <mxCell id="jUnamfFkszUpqMm_n2EK-48" value="" style="endArrow=none;html=1;rounded=0;entryX=0.5;entryY=0.5;entryDx=0;entryDy=0;entryPerimeter=0;exitX=1;exitY=0.5;exitDx=0;exitDy=0;" edge="1" parent="1" source="jUnamfFkszUpqMm_n2EK-7" target="jUnamfFkszUpqMm_n2EK-27">
          <mxGeometry width="50" height="50" relative="1" as="geometry">
            <mxPoint x="630" y="-490" as="sourcePoint" />
            <mxPoint x="680" y="-540" as="targetPoint" />
          </mxGeometry>
        </mxCell>
        <mxCell id="jUnamfFkszUpqMm_n2EK-49" value="" style="endArrow=none;html=1;rounded=0;entryX=0.5;entryY=0.5;entryDx=0;entryDy=0;entryPerimeter=0;exitX=1;exitY=0.5;exitDx=0;exitDy=0;" edge="1" parent="1" source="jUnamfFkszUpqMm_n2EK-15" target="jUnamfFkszUpqMm_n2EK-27">
          <mxGeometry width="50" height="50" relative="1" as="geometry">
            <mxPoint x="670" y="-440" as="sourcePoint" />
            <mxPoint x="720" y="-490" as="targetPoint" />
          </mxGeometry>
        </mxCell>
        <mxCell id="jUnamfFkszUpqMm_n2EK-50" value="" style="endArrow=none;html=1;rounded=0;entryX=0.5;entryY=0.5;entryDx=0;entryDy=0;entryPerimeter=0;exitX=0;exitY=0.5;exitDx=0;exitDy=0;" edge="1" parent="1" source="jUnamfFkszUpqMm_n2EK-15" target="jUnamfFkszUpqMm_n2EK-16">
          <mxGeometry width="50" height="50" relative="1" as="geometry">
            <mxPoint x="180" y="-610" as="sourcePoint" />
            <mxPoint x="70" y="-700" as="targetPoint" />
          </mxGeometry>
        </mxCell>
        <mxCell id="jUnamfFkszUpqMm_n2EK-51" value="" style="endArrow=none;html=1;rounded=0;exitX=0.5;exitY=0.5;exitDx=0;exitDy=0;exitPerimeter=0;entryX=0;entryY=0.5;entryDx=0;entryDy=0;" edge="1" parent="1" source="jUnamfFkszUpqMm_n2EK-23" target="jUnamfFkszUpqMm_n2EK-9">
          <mxGeometry width="50" height="50" relative="1" as="geometry">
            <mxPoint x="130" y="-530" as="sourcePoint" />
            <mxPoint x="180" y="-580" as="targetPoint" />
          </mxGeometry>
        </mxCell>
        <mxCell id="jUnamfFkszUpqMm_n2EK-52" value="" style="endArrow=none;html=1;rounded=0;exitX=0.5;exitY=0.5;exitDx=0;exitDy=0;exitPerimeter=0;entryX=0;entryY=0.5;entryDx=0;entryDy=0;" edge="1" parent="1" source="jUnamfFkszUpqMm_n2EK-23" target="jUnamfFkszUpqMm_n2EK-7">
          <mxGeometry width="50" height="50" relative="1" as="geometry">
            <mxPoint x="170" y="-460" as="sourcePoint" />
            <mxPoint x="220" y="-510" as="targetPoint" />
          </mxGeometry>
        </mxCell>
        <mxCell id="jUnamfFkszUpqMm_n2EK-53" value="" style="endArrow=none;html=1;rounded=0;exitX=0.5;exitY=0.5;exitDx=0;exitDy=0;exitPerimeter=0;entryX=0;entryY=0.5;entryDx=0;entryDy=0;" edge="1" parent="1" source="jUnamfFkszUpqMm_n2EK-23" target="jUnamfFkszUpqMm_n2EK-15">
          <mxGeometry width="50" height="50" relative="1" as="geometry">
            <mxPoint x="140" y="-430" as="sourcePoint" />
            <mxPoint x="190" y="-390" as="targetPoint" />
          </mxGeometry>
        </mxCell>
        <mxCell id="jUnamfFkszUpqMm_n2EK-54" value="" style="endArrow=none;html=1;rounded=0;entryX=0.5;entryY=0.5;entryDx=0;entryDy=0;entryPerimeter=0;exitX=1;exitY=0.5;exitDx=0;exitDy=0;" edge="1" parent="1" source="jUnamfFkszUpqMm_n2EK-12" target="jUnamfFkszUpqMm_n2EK-27">
          <mxGeometry width="50" height="50" relative="1" as="geometry">
            <mxPoint x="660" y="-420" as="sourcePoint" />
            <mxPoint x="710" y="-470" as="targetPoint" />
          </mxGeometry>
        </mxCell>
        <mxCell id="jUnamfFkszUpqMm_n2EK-55" value="" style="endArrow=none;html=1;rounded=0;entryX=0.5;entryY=0.5;entryDx=0;entryDy=0;entryPerimeter=0;exitX=1;exitY=0.5;exitDx=0;exitDy=0;" edge="1" parent="1" source="jUnamfFkszUpqMm_n2EK-14" target="jUnamfFkszUpqMm_n2EK-27">
          <mxGeometry width="50" height="50" relative="1" as="geometry">
            <mxPoint x="670" y="-330" as="sourcePoint" />
            <mxPoint x="720" y="-380" as="targetPoint" />
          </mxGeometry>
        </mxCell>
      </root>
    </mxGraphModel>
  </diagram>
</mxfile>
